<?xml version="1.0" encoding="UTF-8"?>
<svg width="1024px" height="1024px" viewBox="0 0 1024 1024" version="1.1" xmlns="http://www.w3.org/2000/svg" xmlns:xlink="http://www.w3.org/1999/xlink">
    <!-- Generator: Sketch 48.2 (47327) - http://www.bohemiancoding.com/sketch -->
    <title>iPhone-60@3x Copy 2</title>
    <desc>Created with Sketch.</desc>
    <defs></defs>
    <g id="Page-1" stroke="none" stroke-width="1" fill="none" fill-rule="evenodd">
        <g id="iPhone-60@3x-Copy-2">
            <path d="M62.7555,0 L117.2445,0 C135.315,0 144.348,0 154.0755,3.075 C164.6955,6.9405 173.0595,15.3045 176.925,25.9245 C180,35.6505 180,44.6865 180,62.7555 L180,117.2445 C180,135.315 180,144.348 176.925,154.0755 C173.0595,164.6955 164.6955,173.0595 154.0755,176.9235 C144.348,180 135.315,180 117.2445,180 L62.7555,180 C44.685,180 35.6505,180 25.9245,176.9235 C15.3045,173.0595 6.9405,164.6955 3.075,154.0755 C0,144.348 0,135.315 0,117.2445 L0,62.7555 C0,44.6865 0,35.6505 3.075,25.9245 C6.9405,15.3045 15.3045,6.9405 25.9245,3.075 C35.6505,0 44.685,0 62.7555,0 L62.7555,0" id="Mask" fill="#D6D6D6"></path>
            <g id="Group-Copy">
                <rect id="Rectangle-23" fill="#FFFFFF" x="0" y="0" width="1024" height="1024"></rect>
                <path d="M756.359245,904.533333 C746.37541,902.857818 740.837344,898.513424 740.837344,890.536661 C740.837344,879.89534 760.183898,877.50186 760.183897,861.39062 C760.183897,845.27938 746.075096,837.536505 720.976447,837.536506 C695.877798,837.536507 684.255203,850.133211 684.255198,861.390619 C684.255193,872.648027 704.848406,880.518463 704.848404,890.659276 C704.848403,898.336007 698.724401,902.811579 690.287546,904.533333 L603.022222,904.533333 L603.022222,807.822222 L847.644444,807.822222 L847.644444,904.533333 L756.359245,904.533333 Z" id="Rectangle-29" fill="#646464"></path>
                <rect id="Rectangle-29" fill="#474747" x="176.355556" y="813.511111" width="244.622222" height="91.0222222"></rect>
                <rect id="Rectangle-23-Copy" fill="#000000" opacity="0.25" x="0" y="0" width="1024" height="1024"></rect>
                <rect id="Rectangle-17-Copy" fill="#F2F2F2" x="0" y="199.111111" width="1024" height="625.777778"></rect>
                <path d="M608.711111,660.339918 C608.711111,647.748667 604.126182,637.059226 593.918341,637.059224 C583.710501,637.059222 575.788043,657.658453 564.456227,657.658448 C553.12441,657.658444 540.444445,646.032452 540.444444,620.926468 C540.444444,595.820484 548.238496,581.707559 564.456227,581.707559 C580.673958,581.707558 583.083259,601.059766 593.794916,601.059766 C604.506574,601.059767 608.711111,591.200994 608.711111,574.077478 L608.711111,597.333333 L853.333333,597.333333 L853.333333,739.555556 L608.711111,739.555556 L608.711111,660.339918 Z M773.064977,739.367171 C755.941462,739.367171 746.082689,735.190242 746.08269,724.548921 C746.08269,713.9076 765.434897,711.514119 765.434897,695.402879 C765.434897,679.291639 751.321972,671.548765 726.215988,671.548766 C701.110004,671.548767 689.484012,684.145471 689.484007,695.402879 C689.484003,706.660287 710.083233,714.530723 710.083232,724.671536 C710.08323,734.812348 699.393789,739.367171 686.802538,739.367171 L773.064977,739.367171 Z" id="Rectangle-29" fill="#D2D2D2"></path>
                <path d="M332.868958,671.288889 C324.191919,672.939687 317.841442,677.436049 317.841441,685.250015 C317.841439,695.387865 338.44067,703.256001 338.440665,714.51012 C338.44066,725.764239 326.814668,738.357263 301.708684,738.357264 C276.6027,738.357265 262.489775,730.616652 262.489775,714.51012 C262.489775,698.403587 281.841982,696.010806 281.841983,685.372594 C281.841983,677.249131 276.093306,672.893972 265.750979,671.288889 L176.355556,671.288889 L176.355556,603.022222 L420.977778,603.022222 L420.977778,671.288889 L332.868958,671.288889 Z" id="Rectangle-29" fill="#ACACAC"></path>
                <rect id="Rectangle-17-Copy-2" fill="#000000" opacity="0.05" x="0" y="199.111111" width="1024" height="625.777778"></rect>
                <rect id="Rectangle-17" fill="#FFFFFF" x="0" y="0" width="1024" height="625.777778"></rect>
                <path d="M690.145005,483.555556 L603.022222,483.555556 L603.022222,404.339918 C603.022222,391.748667 607.575714,381.059226 617.713564,381.059224 C627.851414,381.059222 635.719551,401.658453 646.97367,401.658448 C658.227788,401.658444 670.820812,390.032452 670.820813,364.926468 C670.820814,339.820484 663.080201,325.707559 646.973669,325.707559 C630.867136,325.707558 628.474355,345.059766 617.836143,345.059766 C607.197931,345.059767 603.022222,335.200994 603.022222,318.077478 L603.022222,238.933333 L692.417646,238.933333 C702.759972,237.32825 708.50865,232.973091 708.508649,224.849629 C708.508649,214.211417 689.156441,211.818635 689.156442,195.712103 C689.156442,179.60557 703.269367,171.864958 728.375351,171.864958 C753.481335,171.864959 765.107327,184.457983 765.107332,195.712102 C765.107336,206.966221 744.508105,214.834357 744.508107,224.972207 C744.508109,232.786173 750.858586,237.282535 759.535625,238.933333 L847.644444,238.933333 L847.644444,318.077478 C847.644444,335.200994 843.439907,345.059767 832.72825,345.059766 C822.016592,345.059766 819.607292,325.707558 803.389561,325.707559 C787.17183,325.707559 779.377777,339.820484 779.377778,364.926468 C779.377779,390.032452 792.057743,401.658444 803.38956,401.658448 C814.721376,401.658453 822.643834,381.059222 832.851675,381.059224 C843.059515,381.059226 847.644444,391.748667 847.644444,404.339918 L847.644444,483.555556 L756.450929,483.555556 C746.389836,481.894989 740.806513,477.549122 740.806513,469.543343 C740.806514,458.905131 760.158721,456.51235 760.158721,440.405817 C760.158721,424.299285 746.045796,416.558672 720.939812,416.558673 C695.833828,416.558674 684.207836,429.151698 684.207831,440.405817 C684.207826,451.659935 704.807057,459.528072 704.807055,469.665922 C704.807054,477.369763 698.634314,481.848854 690.145005,483.555556 Z" id="Rectangle-29" fill="#8C8C8C"></path>
                <path d="M324.072565,483.555556 C314.048242,481.887339 308.486506,477.541544 308.486507,469.548921 C308.486507,458.9076 327.838714,456.514119 327.838714,440.402879 C327.838714,424.291639 313.725789,416.548765 288.619805,416.548766 C263.513821,416.548767 251.887829,429.145471 251.887824,440.402879 C251.88782,451.660287 272.48705,459.530723 272.487049,469.671536 C272.487047,477.363119 266.33753,481.841144 257.872927,483.555556 L170.666667,483.555556 L170.666667,238.933333 L260.159814,238.933333 C270.463003,237.319985 276.188643,232.964745 276.188642,224.855206 C276.188642,214.213885 256.836435,211.820405 256.836435,195.709165 C256.836435,179.597925 270.94936,171.85505 296.055344,171.855051 C321.161328,171.855052 332.78732,184.451756 332.787325,195.709164 C332.787329,206.966572 312.188099,214.837008 312.1881,224.977821 C312.188102,232.778827 318.513833,237.274191 327.164876,238.933333 L415.288889,238.933333 L415.288889,331.866016 C417.231202,340.378972 421.49437,345.059766 428.826732,345.059766 C439.468053,345.059766 441.861534,325.707558 457.972774,325.707559 C474.084014,325.707559 481.826889,339.820484 481.826888,364.926468 C481.826887,390.032452 469.230183,401.658444 457.972775,401.658448 C446.715367,401.658453 438.844931,381.059222 428.704118,381.059224 C421.632655,381.059225 417.277463,386.257128 415.288889,393.67317 L415.288889,483.555556 L324.072565,483.555556 Z" id="Rectangle-29" fill="#474747"></path>
            </g>
        </g>
    </g>
</svg>